<?xml version="1.0" encoding="utf-8"?>
<!-- Svg Vector Icons : http://www.onlinewebfonts.com/icon -->
<!DOCTYPE svg PUBLIC "-//W3C//DTD SVG 1.1//EN" "http://www.w3.org/Graphics/SVG/1.1/DTD/svg11.dtd">
<svg version="1.1" xmlns="http://www.w3.org/2000/svg" xmlns:xlink="http://www.w3.org/1999/xlink" x="0px" y="0px" viewBox="0 0 1000 1000" enable-background="new 0 0 1000 1000" xml:space="preserve">
<metadata> Svg Vector Icons : http://www.onlinewebfonts.com/icon </metadata>
<g><path d="M941.5,145.3H594.4c-22.6,0-40.8-18.3-40.8-40.8c0-22.5,18.3-40.8,40.8-40.8h347.1c22.5,0,40.8,18.3,40.8,40.8C982.3,127,964.1,145.3,941.5,145.3z"/><path d="M941.5,390.3H594.4c-22.6,0-40.8-18.3-40.8-40.8c0-22.5,18.3-40.8,40.8-40.8h347.1c22.5,0,40.8,18.3,40.8,40.8C982.3,372,964.1,390.3,941.5,390.3z"/><path d="M949.2,694H602.1c-22.5,0-40.8-18.3-40.8-40.8s18.3-40.8,40.8-40.8h347.1c22.6,0,40.8,18.3,40.8,40.8S971.7,694,949.2,694z"/><path d="M949.2,939H602.1c-22.5,0-40.8-18.3-40.8-40.8c0-22.6,18.3-40.8,40.8-40.8h347.1c22.6,0,40.8,18.3,40.8,40.8C990,920.7,971.7,939,949.2,939z"/><path d="M316.2,438.7H132.5C64.9,438.7,10,383.8,10,316.2V132.5C10,64.9,64.9,10,132.5,10h183.7c67.5,0,122.5,54.9,122.5,122.5v183.7C438.7,383.8,383.8,438.7,316.2,438.7z M132.5,91.7c-22.5,0-40.8,18.3-40.8,40.8v183.7c0,22.5,18.3,40.8,40.8,40.8h183.7c22.5,0,40.8-18.3,40.8-40.8V132.5c0-22.5-18.3-40.8-40.8-40.8H132.5z"/><path d="M316.2,990H132.5C64.9,990,10,935.1,10,867.5V683.8c0-67.5,54.9-122.5,122.5-122.5h183.7c67.5,0,122.5,54.9,122.5,122.5v183.7C438.7,935.1,383.8,990,316.2,990z M132.5,642.9c-22.5,0-40.8,18.3-40.8,40.8v183.7c0,22.5,18.3,40.8,40.8,40.8h183.7c22.5,0,40.8-18.3,40.8-40.8V683.8c0-22.5-18.3-40.8-40.8-40.8H132.5z"/></g>
</svg>