<?xml version="1.0" encoding="utf-8"?>
<!-- Svg Vector Icons : http://www.onlinewebfonts.com/icon -->
<!DOCTYPE svg PUBLIC "-//W3C//DTD SVG 1.1//EN" "http://www.w3.org/Graphics/SVG/1.1/DTD/svg11.dtd">
<svg version="1.1" xmlns="http://www.w3.org/2000/svg" xmlns:xlink="http://www.w3.org/1999/xlink" x="0px" y="0px" viewBox="0 0 1000 1000" enable-background="new 0 0 1000 1000" xml:space="preserve">
<metadata> Svg Vector Icons : http://www.onlinewebfonts.com/icon </metadata>
<g><path d="M571.1,923.1c6.9-6.9,10.6-16.2,10.6-26.8v-88c0-10.6-3.7-20-10.6-26.8c-6.8-6.9-16.8-10.6-26.8-10.6l0,0h-87.9l0,0c-10.6,0-19.9,3.8-26.8,10.6l0,0c-6.8,6.9-11.2,16.2-11.2,26.8v88c0,10.6,4.4,20,11.2,26.8l0,0c6.8,6.9,16.2,11.2,26.8,11.2l0,0h87.9l0,0C554.2,934.4,564.2,930,571.1,923.1L571.1,923.1z M456.3,714.1h87.9c25.5,0,49.3,10.6,66.7,27.4c16.8,17.5,27.4,40.6,27.4,66.8l0,0v88l0,0c0,26.2-10.6,49.9-27.4,66.8l0,0c-17.5,16.8-41.2,27.4-66.7,27.4l0,0h-87.9l0,0c-26.2,0-49.9-10.6-66.7-27.4l0,0c-17.5-16.9-27.4-40.6-27.4-66.8v-88c0-26.2,10-49.3,27.4-66.8C406.5,724.7,430.2,714.1,456.3,714.1L456.3,714.1z M922.7,923.1c6.8-6.9,11.2-16.2,11.2-26.8l0,0v-88l0,0c0-10.6-4.4-20-11.2-26.8c-6.9-6.9-16.2-10.6-26.8-10.6l0,0H808l0,0c-10.6,0-19.9,3.8-26.8,10.6c-6.8,6.9-10.6,16.2-10.6,26.8v88c0,10.6,3.7,20,10.6,26.8l0,0c6.9,6.9,16.2,11.2,26.8,11.2l0,0h87.9l0,0C906.5,934.4,915.8,930,922.7,923.1L922.7,923.1z M808,714.1h87.9c26.2,0,49.9,10.6,66.7,27.4c16.8,17.5,27.4,40.6,27.4,66.8v88c0,26.2-10.6,49.9-27.4,66.8c-16.8,16.8-40.5,27.4-66.7,27.4l0,0H808l0,0c-26.2,0-49.3-10.6-66.7-27.4c-16.8-16.9-27.4-40.6-27.4-66.8l0,0v-88l0,0c0-26.2,10.6-49.3,27.4-66.8C758.7,724.7,781.8,714.1,808,714.1L808,714.1z M218.8,923.1c6.8-6.9,11.2-16.2,11.2-26.8l0,0v-88l0,0c0-10.6-4.4-20-11.2-26.8c-6.9-6.9-16.2-10.6-26.8-10.6l0,0h-87.9l0,0c-10.6,0-19.9,3.8-26.8,10.6l0,0c-6.8,6.9-10.6,16.2-10.6,26.8l0,0v88l0,0c0,10.6,3.8,20,10.6,26.8l0,0c6.8,6.9,16.8,11.2,26.8,11.2l0,0H192l0,0C202.6,934.4,212,930,218.8,923.1L218.8,923.1z M104.1,714.1H192c26.2,0,49.9,10.6,66.7,27.4c17.5,17.5,27.4,40.6,27.4,66.8v88c0,26.2-10,49.9-27.4,66.8c-16.8,16.8-40.5,27.4-66.7,27.4l0,0h-87.9l0,0c-26.2,0-49.2-10.6-66.7-27.4l0,0C20.6,946.2,10,922.5,10,896.3v-88c0-26.2,10.6-49.3,27.4-66.8C54.9,724.7,78,714.1,104.1,714.1L104.1,714.1z M168.3,674.1c-5,5-12.5,8.1-19.9,8.1l0,0l0,0c-8.1,0-15-3.1-19.9-8.1c-5-5-8.1-11.9-8.1-20l0,0l0,0v-176h-0.6c0-7.5,3.8-15,8.7-20l0,0c5-5,11.8-8.1,19.9-8.1h323.5V345.9c0-7.5,3.1-14.4,8.1-20l0,0c5-5,12.5-8.1,19.9-8.1c8.1,0,15,3.1,19.9,8.1c5,5.6,8.7,12.5,8.7,20v104.2h323.6l0,0c7.5,0,14.3,3.1,19.9,8.1c5,5,8.1,12.5,8.1,20v176c0,8.1-3.1,15-8.1,20c-5.6,5-12.5,8.8-19.9,8.8c-8.1,0-15-3.7-19.9-8.8c-5.6-5-8.7-11.9-8.7-20V506.2H528.1v147.9l0,0c0,8.1-3.1,15-8.1,20c-5,5-11.9,8.7-19.9,8.7c-7.5,0-15-3.7-19.9-8.7l0,0c-5-5-8.1-11.9-8.1-20V506.2H176.4v147.9C176.4,662.3,173.3,669.1,168.3,674.1L168.3,674.1z M429.6,76.9c-6.8,6.9-11.2,16.8-11.2,26.8v88c0,10.6,4.4,20,11.2,26.8c6.8,6.9,16.2,11.2,26.8,11.2l0,0h87.9l0,0c10,0,19.9-4.4,26.8-11.2l0,0c6.9-6.9,10.6-16.2,10.6-26.8v-88c0-10-3.7-20-10.6-26.8c-6.8-6.9-16.8-10.6-26.8-10.6l0,0h-87.9l0,0C445.8,66.3,436.4,70.6,429.6,76.9L429.6,76.9z M544.3,285.9h-87.9l0,0c-26.2,0-49.9-10-66.7-27.5l0,0c-17.5-16.9-27.4-40.6-27.4-66.8l0,0v-88c0-25.6,10-49.3,27.4-66.8c16.8-16.9,40.5-27.5,66.7-27.5l0,0h87.9l0,0c25.5,0,49.3,10.6,66.7,27.5c16.8,17.5,27.4,41.2,27.4,66.8l0,0v88l0,0c0,26.2-10.6,49.9-27.4,66.8l0,0C593.5,276,569.8,285.9,544.3,285.9L544.3,285.9z"/></g>
</svg>