<?xml version="1.0" encoding="utf-8"?>
<!-- Svg Vector Icons : http://www.onlinewebfonts.com/icon -->
<!DOCTYPE svg PUBLIC "-//W3C//DTD SVG 1.1//EN" "http://www.w3.org/Graphics/SVG/1.1/DTD/svg11.dtd">
<svg version="1.1" xmlns="http://www.w3.org/2000/svg" xmlns:xlink="http://www.w3.org/1999/xlink" x="0px" y="0px" viewBox="0 0 1000 1000" enable-background="new 0 0 1000 1000" xml:space="preserve">
<metadata> Svg Vector Icons : http://www.onlinewebfonts.com/icon </metadata>
<g><path d="M311.7,800.6V694.8c0-5.3-1.8-9.6-5.3-12.9c-3.5-3.3-8.1-4.9-13.7-4.9H103.9c-4.9,0-9.5,1.6-13.7,4.9c-4.2,3.3-6,7.6-5.3,12.9v105.8c0,5.3,1.8,9.6,5.3,12.9s8.1,4.9,13.7,4.9h188.8c5.6,0,10.2-1.6,13.7-4.9C310,810.2,311.7,805.9,311.7,800.6z M311.7,589V482.2c0-4.6-1.8-8.6-5.3-11.9c-3.5-3.3-8.1-4.9-13.7-4.9H103.9c-4.9,0-9.5,1.6-13.7,4.9c-4.2,3.3-6,7.3-5.3,11.9V589c0,4.6,1.8,8.6,5.3,11.9c3.5,3.3,8.1,4.9,13.7,4.9h188.8c5.6,0,10.2-1.6,13.7-4.9C310,597.6,311.7,593.6,311.7,589z M612.4,800.6V694.8c0-5.3-1.8-9.6-5.3-12.9c-3.5-3.3-7.7-4.9-12.7-4.9H405.6c-5.6,0-10.2,1.6-13.7,4.9c-3.5,3.3-5.3,7.6-5.3,12.9v105.8c0,5.3,1.8,9.6,5.3,12.9c3.5,3.3,8.1,4.9,13.7,4.9h188.8c4.9,0,9.1-1.6,12.7-4.9C610.6,810.2,612.4,805.9,612.4,800.6z M311.7,376.4V270.6c0-5.3-1.8-9.6-5.3-12.9c-3.5-3.3-8.1-4.9-13.7-4.9H103.9c-4.9,0-9.5,1.6-13.7,4.9c-4.2,3.3-6,7.6-5.3,12.9v105.8c0,5.3,1.8,9.6,5.3,12.9s8.1,4.9,13.7,4.9h188.8c5.6,0,10.2-1.6,13.7-4.9C310,385.9,311.7,381.7,311.7,376.4z M612.4,589V482.2c0-4.6-1.8-8.6-5.3-11.9c-3.5-3.3-7.7-4.9-12.7-4.9H405.6c-5.6,0-10.2,1.6-13.7,4.9c-3.5,3.3-5.3,7.3-5.3,11.9V589c0,4.6,1.8,8.6,5.3,11.9c3.5,3.3,8.1,4.9,13.7,4.9h188.8c4.9,0,9.1-1.6,12.7-4.9C610.6,597.6,612.4,593.6,612.4,589z M914.1,800.6V694.8c0-5.3-1.8-9.6-5.3-12.9c-3.5-3.3-8.1-4.9-13.7-4.9H707.3c-5.6,0-10.2,1.6-13.7,4.9c-3.5,3.3-5.3,7.6-5.3,12.9v105.8c0,5.3,1.8,9.6,5.3,12.9s8.1,4.9,13.7,4.9h187.8c5.6,0,10.2-1.6,13.7-4.9C912.3,810.2,914.1,805.9,914.1,800.6z M612.4,376.4V270.6c0-5.3-1.8-9.6-5.3-12.9c-3.5-3.3-7.7-4.9-12.7-4.9H405.6c-5.6,0-10.2,1.6-13.7,4.9c-3.5,3.3-5.3,7.6-5.3,12.9v105.8c0,5.3,1.8,9.6,5.3,12.9c3.5,3.3,8.1,4.9,13.7,4.9h188.8c4.9,0,9.1-1.6,12.7-4.9C610.6,385.9,612.4,381.7,612.4,376.4z M914.1,589V482.2c0-4.6-1.8-8.6-5.3-11.9c-3.5-3.3-8.1-4.9-13.7-4.9H707.3c-5.6,0-10.2,1.6-13.7,4.9c-3.5,3.3-5.3,7.3-5.3,11.9V589c0,4.6,1.8,8.6,5.3,11.9c3.5,3.3,8.1,4.9,13.7,4.9h187.8c5.6,0,10.2-1.6,13.7-4.9C912.3,597.6,914.1,593.6,914.1,589z M914.1,376.4V270.6c0-5.3-1.8-9.6-5.3-12.9c-3.5-3.3-8.1-4.9-13.7-4.9H707.3c-5.6,0-10.2,1.6-13.7,4.9s-5.3,7.6-5.3,12.9v105.8c0,5.3,1.8,9.6,5.3,12.9s8.1,4.9,13.7,4.9h187.8c5.6,0,10.2-1.6,13.7-4.9C912.3,385.9,914.1,381.7,914.1,376.4z M990,200.4v600.3c0,24.4-9.5,45.2-28.5,62.3c-19,17.1-41.1,25.7-66.5,25.7H103.9c-25.3,0-47.5-8.6-66.5-25.7C18.5,845.8,9.3,825,10,800.6V200.4c0-24.4,9.1-45.2,27.4-62.3s40.4-26,66.5-26.7h791.1c26,0,48.2,8.9,66.5,26.7C979.8,155.9,989.3,176.6,990,200.4z"/></g>
</svg>